<svg
  width="2em"
  height="2em"
  viewBox="0 0 100 100"
  xmlns="http://www.w3.org/2000/svg"
  fill="none"
>
  <!-- Background Circle -->
  <circle cx="50" cy="50" r="48" stroke="#2E8B57" stroke-width="4" fill="#ffffff" />

  <!-- Calendar Shape -->
  <rect x="25" y="30" width="50" height="40" rx="5" ry="5" fill="#1E90FF" />
  <rect x="30" y="35" width="10" height="10" fill="#FFFFFF" />
  <rect x="45" y="35" width="10" height="10" fill="#FFFFFF" />
  <rect x="60" y="35" width="10" height="10" fill="#FFFFFF" />
  <rect x="30" y="50" width="10" height="10" fill="#FFFFFF" />
  <rect x="45" y="50" width="10" height="10" fill="#FFFFFF" />
  <rect x="60" y="50" width="10" height="10" fill="#FFFFFF" />

  <!-- AI Neural Network Representation -->
  <line x1="20" y1="80" x2="35" y2="65" stroke="#808080" stroke-width="2" />
  <line x1="35" y1="65" x2="50" y2="80" stroke="#808080" stroke-width="2" />
  <line x1="50" y1="80" x2="65" y2="65" stroke="#808080" stroke-width="2" />
  <line x1="65" y1="65" x2="80" y2="80" stroke="#808080" stroke-width="2" />

  <!-- Nodes -->
  <circle cx="20" cy="80" r="3" fill="#696969" />
  <circle cx="35" cy="65" r="3" fill="#696969" />
  <circle cx="50" cy="80" r="3" fill="#696969" />
  <circle cx="65" cy="65" r="3" fill="#696969" />
  <circle cx="80" cy="80" r="3" fill="#696969" />
</svg>
